<svg xmlns="http://www.w3.org/2000/svg" xmlns:svg="http://www.w3.org/2000/svg" xmlns:xlink="http://www.w3.org/1999/xlink" id="svg2963" width="48" height="48" version="1.0"><metadata id="metadata56"/><defs id="defs3"><linearGradient id="linearGradient3261" x1="16.49" x2="16.49" y1="6.304" y2="21.411" gradientUnits="userSpaceOnUse"><stop id="stop3263" offset=".209" style="stop-color:#ffffb2;stop-opacity:1"/><stop style="stop-color:#fff;stop-opacity:1" id="stop3269" offset=".397"/><stop style="stop-color:#ffff97;stop-opacity:1" id="stop3267" offset=".54"/><stop id="stop3265" offset=".621" style="stop-color:#ffffcd;stop-opacity:1"/></linearGradient><linearGradient id="linearGradient3817"><stop style="stop-color:#d68f21;stop-opacity:1" id="stop3819" offset="0"/><stop style="stop-color:#d68f21;stop-opacity:0" id="stop3821" offset="1"/></linearGradient><linearGradient id="SVGID_1_" x1="16.49" x2="16.49" y1="6.304" y2="21.411" gradientUnits="userSpaceOnUse"><stop style="stop-color:#fed3aa" id="stop2741" offset=".209"/><stop style="stop-color:#eaba6f" id="stop2743" offset=".621"/></linearGradient><radialGradient id="radialGradient6719" cx="605.714" cy="486.648" r="117.143" fx="605.714" fy="486.648" gradientTransform="matrix(-2.774389,0,0,1.969706,112.7623,-872.8854)" gradientUnits="userSpaceOnUse" xlink:href="#linearGradient5060"/><linearGradient id="linearGradient5060"><stop style="stop-color:#000;stop-opacity:1" id="stop5062" offset="0"/><stop style="stop-color:#000;stop-opacity:0" id="stop5064" offset="1"/></linearGradient><radialGradient id="radialGradient6717" cx="605.714" cy="486.648" r="117.143" fx="605.714" fy="486.648" gradientTransform="matrix(2.774389,0,0,1.969706,-1891.633,-872.8854)" gradientUnits="userSpaceOnUse" xlink:href="#linearGradient5060"/><linearGradient id="linearGradient5048"><stop style="stop-color:#000;stop-opacity:0" id="stop5050" offset="0"/><stop style="stop-color:#000;stop-opacity:1" id="stop5056" offset=".5"/><stop style="stop-color:#000;stop-opacity:0" id="stop5052" offset="1"/></linearGradient><linearGradient id="linearGradient6715" x1="302.857" x2="302.857" y1="366.648" y2="609.505" gradientTransform="matrix(2.774389,0,0,1.969706,-1892.179,-872.8854)" gradientUnits="userSpaceOnUse" xlink:href="#linearGradient5048"/><linearGradient id="linearGradient4995"><stop style="stop-color:#de9523;stop-opacity:1" id="stop4997" offset="0"/><stop style="stop-color:#a36d18;stop-opacity:1" id="stop4999" offset="1"/></linearGradient><linearGradient id="linearGradient4987"><stop style="stop-color:#a0670c;stop-opacity:1" id="stop4989" offset="0"/><stop style="stop-color:#a0670c;stop-opacity:0" id="stop4991" offset="1"/></linearGradient><linearGradient id="linearGradient4979"><stop style="stop-color:#fbf0e0;stop-opacity:1" id="stop4981" offset="0"/><stop style="stop-color:#f0ce99;stop-opacity:1" id="stop4983" offset="1"/></linearGradient><linearGradient id="linearGradient4222"><stop style="stop-color:#fff;stop-opacity:1" id="stop4224" offset="0"/><stop style="stop-color:#fff;stop-opacity:.68639052" id="stop4226" offset="1"/></linearGradient><linearGradient id="linearGradient4210"><stop style="stop-color:#eaba6f;stop-opacity:1" id="stop4212" offset="0"/><stop style="stop-color:#b97a1b;stop-opacity:1" id="stop4214" offset="1"/></linearGradient><linearGradient id="linearGradient4192"><stop style="stop-color:#e9b96e;stop-opacity:1" id="stop4194" offset="0"/><stop style="stop-color:#f1d19e;stop-opacity:1" id="stop4196" offset="1"/></linearGradient><linearGradient id="linearGradient4182"><stop style="stop-color:#a36d18;stop-opacity:1" id="stop4184" offset="0"/><stop style="stop-color:#d79020;stop-opacity:1" id="stop4186" offset="1"/></linearGradient><linearGradient id="linearGradient2269" x1="30.062" x2="17.696" y1="13.445" y2="12.334" gradientUnits="userSpaceOnUse" xlink:href="#linearGradient4979"/><linearGradient id="linearGradient2274" x1="36.289" x2="47.066" y1="14.662" y2="15.268" gradientUnits="userSpaceOnUse" xlink:href="#linearGradient4995"/><linearGradient id="linearGradient2277" x1="25.381" x2="24.119" y1="24.721" y2="16.17" gradientTransform="matrix(1,0,0,0.986355,0,0.316638)" gradientUnits="userSpaceOnUse" xlink:href="#linearGradient4192"/><linearGradient id="linearGradient2280" x1="16.149" x2="34.194" y1="12.637" y2="12.637" gradientTransform="matrix(1,0,0,1.039184,0,-4.057054e-2)" gradientUnits="userSpaceOnUse" xlink:href="#linearGradient4182"/><linearGradient id="linearGradient2282" x1="21.907" x2="22.072" y1="9.758" y2="16.021" gradientUnits="userSpaceOnUse" xlink:href="#linearGradient4987"/><linearGradient id="linearGradient2285" x1="18.707" x2="30.015" y1="19.912" y2="47.388" gradientUnits="userSpaceOnUse" xlink:href="#linearGradient4222"/><linearGradient id="linearGradient2288" x1="24.99" x2="24.99" y1="34.005" y2="22.585" gradientUnits="userSpaceOnUse" xlink:href="#linearGradient4210"/><linearGradient id="linearGradient2820" x1="24.99" x2="24.99" y1="34.005" y2="22.585" gradientUnits="userSpaceOnUse" xlink:href="#linearGradient4210"/><linearGradient id="linearGradient2822" x1="18.707" x2="30.015" y1="19.912" y2="47.388" gradientUnits="userSpaceOnUse" xlink:href="#linearGradient4222"/><linearGradient id="linearGradient2824" x1="16.149" x2="34.194" y1="12.637" y2="12.637" gradientTransform="matrix(1,0,0,1.039184,0,-4.057054e-2)" gradientUnits="userSpaceOnUse" xlink:href="#linearGradient4182"/><linearGradient id="linearGradient2826" x1="21.907" x2="22.072" y1="9.758" y2="16.021" gradientUnits="userSpaceOnUse" xlink:href="#linearGradient4987"/><linearGradient id="linearGradient2828" x1="25.381" x2="24.119" y1="24.721" y2="16.17" gradientTransform="matrix(1,0,0,0.986355,0,0.316638)" gradientUnits="userSpaceOnUse" xlink:href="#linearGradient4192"/><linearGradient id="linearGradient2830" x1="36.289" x2="47.066" y1="14.662" y2="15.268" gradientUnits="userSpaceOnUse" xlink:href="#linearGradient4995"/><linearGradient id="linearGradient2832" x1="30.062" x2="17.696" y1="13.445" y2="12.334" gradientUnits="userSpaceOnUse" xlink:href="#linearGradient4979"/><linearGradient id="linearGradient3823" x1="37.279" x2="23.635" y1="14.863" y2="12.914" gradientTransform="matrix(1.1214953,0,0,1.1666666,-2.9454908,-2.5177664)" gradientUnits="userSpaceOnUse" xlink:href="#linearGradient3817"/><linearGradient id="linearGradient3827" x1="37.279" x2="23.635" y1="14.863" y2="12.914" gradientTransform="matrix(-1.1121495,0,0,1.2,49.338204,-3.0700507)" gradientUnits="userSpaceOnUse" xlink:href="#linearGradient3817"/><linearGradient id="linearGradient2278" x1="16.49" x2="16.49" y1="6.304" y2="21.411" gradientUnits="userSpaceOnUse" xlink:href="#SVGID_1_"/><linearGradient id="linearGradient3259" x1="24.609" x2="24.609" y1="7.669" y2="25.834" gradientUnits="userSpaceOnUse" xlink:href="#linearGradient3261"/><linearGradient id="linearGradient3299" x1="24.609" x2="24.609" y1="7.669" y2="25.834" gradientUnits="userSpaceOnUse" xlink:href="#linearGradient3261"/><linearGradient id="linearGradient2238" x1="16.49" x2="16.49" y1="6.304" y2="21.411" gradientUnits="userSpaceOnUse"><stop id="stop2240" offset=".209" style="stop-color:#fed3aa"/><stop id="stop2242" offset=".621" style="stop-color:#eaba6f"/></linearGradient></defs><g id="g6707" transform="matrix(2.105461e-2,0,0,2.086758e-2,42.60172,35.4036)" style="display:inline;opacity:.80246914"><rect id="rect6709" width="1339.633" height="478.357" x="-1559.252" y="-150.697" style="opacity:.40206185;color:#000;fill:url(#linearGradient6715);fill-opacity:1;fill-rule:nonzero;stroke:none;stroke-width:1;stroke-linecap:round;stroke-linejoin:miter;marker:none;marker-start:none;marker-mid:none;marker-end:none;stroke-miterlimit:4;stroke-dasharray:none;stroke-dashoffset:0;stroke-opacity:1;visibility:visible;display:inline;overflow:visible"/><path id="path6711" d="M -219.61876,-150.68038 C -219.61876,-150.68038 -219.61876,327.65041 -219.61876,327.65041 C -76.744594,328.55086 125.78146,220.48075 125.78138,88.454235 C 125.78138,-43.572302 -33.655436,-150.68036 -219.61876,-150.68038 z" style="opacity:.40206185;color:#000;fill:url(#radialGradient6717);fill-opacity:1;fill-rule:nonzero;stroke:none;stroke-width:1;stroke-linecap:round;stroke-linejoin:miter;marker:none;marker-start:none;marker-mid:none;marker-end:none;stroke-miterlimit:4;stroke-dasharray:none;stroke-dashoffset:0;stroke-opacity:1;visibility:visible;display:inline;overflow:visible"/><path id="path6713" d="M -1559.2523,-150.68038 C -1559.2523,-150.68038 -1559.2523,327.65041 -1559.2523,327.65041 C -1702.1265,328.55086 -1904.6525,220.48075 -1904.6525,88.454235 C -1904.6525,-43.572302 -1745.2157,-150.68036 -1559.2523,-150.68038 z" style="opacity:.40206185;color:#000;fill:url(#radialGradient6719);fill-opacity:1;fill-rule:nonzero;stroke:none;stroke-width:1;stroke-linecap:round;stroke-linejoin:miter;marker:none;marker-start:none;marker-mid:none;marker-end:none;stroke-miterlimit:4;stroke-dasharray:none;stroke-dashoffset:0;stroke-opacity:1;visibility:visible;display:inline;overflow:visible"/></g><g id="closed_box_1_" transform="translate(6.9008633,7.1095533)"><linearGradient id="linearGradient2770" x1="16.49" x2="16.49" y1="6.304" y2="21.411" gradientUnits="userSpaceOnUse"><stop style="stop-color:#fed3aa" id="stop2772" offset=".209"/><stop style="stop-color:#eaba6f" id="stop2774" offset=".621"/></linearGradient><path id="path2745" d="M 31.25,7.825 L 27.621,2.943 C 27.621,2.943 26.933,2.068 25.132,1.683 L 16.184,0.506 L 7.848,1.682 C 6.496,1.817 5.496,2.817 5.496,2.817 L 1.729,7.825 C 1.259,8.413 0.5,8.822 0.5,11.029 L 0.5,28.687 C 0.5,30.009 1.586,31.082 2.925,31.082 L 30.055,31.082 C 31.394,31.082 32.48,30.01 32.48,28.687 L 32.48,11.029 C 32.479,9.085 31.721,8.413 31.25,7.825 z" style="fill:url(#SVGID_1_);stroke:#9f6928;stroke-width:1"/><path id="path2747" d="M 31.477,10.981 C 31.462,9.884 31.162,9.259 30.289,8.137 L 26.934,3.755 C 26.934,3.755 26.122,2.88 24.809,2.63 L 16.184,1.505 L 7.881,2.681 C 6.871,2.755 6.059,3.755 6.059,3.755 L 2.589,8.3 C 1.717,9.422 1.54,9.681 1.54,10.981 C 1.54,10.986 1.537,10.991 1.537,10.996 L 1.537,28.726 C 1.537,29.436 2.112,30.01 2.822,30.01 L 30.056,30.01 C 30.766,30.01 31.479,29.436 31.479,28.726 L 31.477,10.981 z" style="opacity:.47999998;fill:none;stroke:#fff;stroke-width:1"/><path id="path2749" d="M 2.746,10.005 C 2.746,10.005 12.308,8.005 16.121,8.005 C 19.934,8.005 30.183,10.067 30.183,10.067" style="opacity:.6;fill:none;stroke:#fff;stroke-width:1;stroke-linecap:round"/><path id="path2751" d="M 30.746,10.567 C 30.746,9.721 16.235,8.522 16.235,8.522 C 16.235,8.522 1.996,9.764 1.996,10.567" style="fill:#9f6928"/><polygon id="polygon2753" points="15.496 9.255 15.929 .88 16.371 .88 16.809 9.255 15.496 9.255" style="fill:#9f6928"/><line id="line2755" x1="15.371" x2="14.996" y1="2.067" y2="7.692" style="opacity:.5;fill:none;stroke:#fff;stroke-width:1"/><line id="line2757" x1="17.309" x2="16.934" y1="7.567" y2="1.942" style="opacity:.5;fill:none;stroke:#fff;stroke-width:1"/><line id="line2759" x1="2.059" x2="30.934" y1="11.005" y2="11.005" style="opacity:.31000001;fill:none;stroke:#9f6928"/></g><path style="opacity:.51234568;fill:url(#linearGradient3823);fill-opacity:1;fill-rule:evenodd;stroke:none;stroke-width:1px;stroke-linecap:butt;stroke-linejoin:miter;stroke-opacity:1" id="path2846" d="M 24.243655,8.2842639 L 24.653541,14.53807 L 38.862945,16.812183 L 34.627449,10.700508 C 34.627449,10.700508 33.944304,9.7055833 31.211728,9.2791877 C 28.479151,8.8527919 24.380283,8.2842639 24.243655,8.2842639 z"/><path style="opacity:.44444444;fill:url(#linearGradient3827);fill-opacity:1;fill-rule:evenodd;stroke:none;stroke-width:1px;stroke-linecap:butt;stroke-linejoin:miter;stroke-opacity:1" id="path3825" d="M 22.375635,8.0406091 L 21.969164,14.473096 L 7.8781728,16.812183 L 12.078372,10.525889 C 12.078372,10.525889 12.755824,9.5025376 15.46563,9.0639593 C 18.175435,8.6253808 22.240145,8.0406091 22.375635,8.0406091 z"/><path style="fill:url(#linearGradient3299);fill-opacity:1;fill-rule:evenodd;stroke:#9f6928;stroke-width:.5;stroke-linecap:butt;stroke-linejoin:miter;stroke-opacity:1;stroke-miterlimit:4;stroke-dasharray:none;opacity:.70987654" id="path2280" d="M 23.03125,7.8453363 L 20.84375,8.1016815 L 19.75,15.96875 L 19.75,25.28125 L 20.875,24.481335 L 21.96875,25.40625 L 23.21875,24.481335 L 24.25,25.3125 L 25.25,24.481335 L 26.3125,25.375 L 26.3125,15.84375 L 24.96875,8.1016815 L 23.03125,7.8453363 z"/><path style="opacity:0;fill:#fff;fill-opacity:1;stroke:#fff;stroke-width:1;stroke-opacity:1" id="path2244" d="M 38.150863,14.934553 L 34.521863,10.052553 C 34.521863,10.052553 33.833863,9.1775533 32.032863,8.7925533 L 23.084863,7.6155533 L 14.748863,8.7915533 C 13.396863,8.9265533 12.396863,9.9265533 12.396863,9.9265533 L 8.629863,14.934553 C 8.159863,15.522553 7.400863,15.931553 7.400863,18.138553 L 7.400863,35.796553 C 7.400863,37.118553 8.486863,38.191553 9.825863,38.191553 L 36.955863,38.191553 C 38.294863,38.191553 39.380863,37.119553 39.380863,35.796553 L 39.380863,18.138553 C 39.379863,16.194553 38.621863,15.522553 38.150863,14.934553 z"/></svg>