<svg xmlns="http://www.w3.org/2000/svg" xmlns:svg="http://www.w3.org/2000/svg" xmlns:xlink="http://www.w3.org/1999/xlink" id="svg2963" width="48" height="48" version="1.0"><defs id="defs3"><radialGradient id="radialGradient6719" cx="605.714" cy="486.648" r="117.143" fx="605.714" fy="486.648" gradientTransform="matrix(-2.774389,0,0,1.969706,112.7623,-872.8854)" gradientUnits="userSpaceOnUse" xlink:href="#linearGradient5060"/><linearGradient id="linearGradient5060"><stop style="stop-color:#000;stop-opacity:1" id="stop5062" offset="0"/><stop style="stop-color:#000;stop-opacity:0" id="stop5064" offset="1"/></linearGradient><radialGradient id="radialGradient6717" cx="605.714" cy="486.648" r="117.143" fx="605.714" fy="486.648" gradientTransform="matrix(2.774389,0,0,1.969706,-1891.633,-872.8854)" gradientUnits="userSpaceOnUse" xlink:href="#linearGradient5060"/><linearGradient id="linearGradient5048"><stop style="stop-color:#000;stop-opacity:0" id="stop5050" offset="0"/><stop style="stop-color:#000;stop-opacity:1" id="stop5056" offset=".5"/><stop style="stop-color:#000;stop-opacity:0" id="stop5052" offset="1"/></linearGradient><linearGradient id="linearGradient6715" x1="302.857" x2="302.857" y1="366.648" y2="609.505" gradientTransform="matrix(2.774389,0,0,1.969706,-1892.179,-872.8854)" gradientUnits="userSpaceOnUse" xlink:href="#linearGradient5048"/><linearGradient id="linearGradient4995"><stop style="stop-color:#de9523;stop-opacity:1" id="stop4997" offset="0"/><stop style="stop-color:#a36d18;stop-opacity:1" id="stop4999" offset="1"/></linearGradient><linearGradient id="linearGradient4987"><stop style="stop-color:#a0670c;stop-opacity:1" id="stop4989" offset="0"/><stop style="stop-color:#a0670c;stop-opacity:0" id="stop4991" offset="1"/></linearGradient><linearGradient id="linearGradient4979"><stop style="stop-color:#fbf0e0;stop-opacity:1" id="stop4981" offset="0"/><stop style="stop-color:#f0ce99;stop-opacity:1" id="stop4983" offset="1"/></linearGradient><linearGradient id="linearGradient4222"><stop style="stop-color:#fff;stop-opacity:1" id="stop4224" offset="0"/><stop style="stop-color:#fff;stop-opacity:.68639052" id="stop4226" offset="1"/></linearGradient><linearGradient id="linearGradient4210"><stop style="stop-color:#eaba6f;stop-opacity:1" id="stop4212" offset="0"/><stop style="stop-color:#b97a1b;stop-opacity:1" id="stop4214" offset="1"/></linearGradient><linearGradient id="linearGradient4192"><stop style="stop-color:#e9b96e;stop-opacity:1" id="stop4194" offset="0"/><stop style="stop-color:#f1d19e;stop-opacity:1" id="stop4196" offset="1"/></linearGradient><linearGradient id="linearGradient4182"><stop style="stop-color:#a36d18;stop-opacity:1" id="stop4184" offset="0"/><stop style="stop-color:#d79020;stop-opacity:1" id="stop4186" offset="1"/></linearGradient><linearGradient id="linearGradient2269" x1="30.062" x2="17.696" y1="13.445" y2="12.334" gradientUnits="userSpaceOnUse" xlink:href="#linearGradient4979"/><linearGradient id="linearGradient2274" x1="36.289" x2="47.066" y1="14.662" y2="15.268" gradientUnits="userSpaceOnUse" xlink:href="#linearGradient4995"/><linearGradient id="linearGradient2277" x1="25.381" x2="24.119" y1="24.721" y2="16.17" gradientTransform="matrix(1,0,0,0.986355,0,0.316638)" gradientUnits="userSpaceOnUse" xlink:href="#linearGradient4192"/><linearGradient id="linearGradient2280" x1="16.149" x2="34.194" y1="12.637" y2="12.637" gradientTransform="matrix(1,0,0,1.039184,0,-4.057054e-2)" gradientUnits="userSpaceOnUse" xlink:href="#linearGradient4182"/><linearGradient id="linearGradient2282" x1="21.907" x2="22.072" y1="9.758" y2="16.021" gradientUnits="userSpaceOnUse" xlink:href="#linearGradient4987"/><linearGradient id="linearGradient2285" x1="18.707" x2="30.015" y1="19.912" y2="47.388" gradientUnits="userSpaceOnUse" xlink:href="#linearGradient4222"/><linearGradient id="linearGradient2288" x1="24.99" x2="24.99" y1="34.005" y2="22.585" gradientUnits="userSpaceOnUse" xlink:href="#linearGradient4210"/><linearGradient id="linearGradient3281" x1="14.463" x2="34.534" y1="12.285" y2="39.685" gradientTransform="matrix(1.241935,0,0,1.241935,-5.027508,-7.208988)" gradientUnits="userSpaceOnUse" xlink:href="#linearGradient3264"/><radialGradient id="radialGradient3262" cx="25.456" cy="39.161" r="19.622" fx="25.456" fy="39.161" gradientTransform="matrix(1,0,0,0.315315,0,26.81305)" gradientUnits="userSpaceOnUse" xlink:href="#linearGradient3256"/><linearGradient id="linearGradient3256"><stop style="stop-color:#000;stop-opacity:1" id="stop3258" offset="0"/><stop style="stop-color:#000;stop-opacity:0" id="stop3260" offset="1"/></linearGradient><linearGradient id="linearGradient3264"><stop style="stop-color:#c9c9c9;stop-opacity:1" id="stop3266" offset="0"/><stop style="stop-color:#f8f8f8;stop-opacity:1" id="stop3276" offset=".25"/><stop style="stop-color:#e2e2e2;stop-opacity:1" id="stop3272" offset=".5"/><stop style="stop-color:#b0b0b0;stop-opacity:1" id="stop3274" offset=".75"/><stop style="stop-color:#c9c9c9;stop-opacity:1" id="stop3268" offset="1"/></linearGradient></defs><g id="layer1"><g style="display:inline" id="g6707" transform="matrix(2.105461e-2,0,0,2.086758e-2,42.60172,35.4036)"><rect style="opacity:.40206185;color:#000;fill:url(#linearGradient6715);fill-opacity:1;fill-rule:nonzero;stroke:none;stroke-width:1;stroke-linecap:round;stroke-linejoin:miter;marker:none;marker-start:none;marker-mid:none;marker-end:none;stroke-miterlimit:4;stroke-dasharray:none;stroke-dashoffset:0;stroke-opacity:1;visibility:visible;display:inline;overflow:visible" id="rect6709" width="1339.633" height="478.357" x="-1559.252" y="-150.697"/><path style="opacity:.40206185;color:#000;fill:url(#radialGradient6717);fill-opacity:1;fill-rule:nonzero;stroke:none;stroke-width:1;stroke-linecap:round;stroke-linejoin:miter;marker:none;marker-start:none;marker-mid:none;marker-end:none;stroke-miterlimit:4;stroke-dasharray:none;stroke-dashoffset:0;stroke-opacity:1;visibility:visible;display:inline;overflow:visible" id="path6711" d="M -219.61876,-150.68038 C -219.61876,-150.68038 -219.61876,327.65041 -219.61876,327.65041 C -76.744594,328.55086 125.78146,220.48075 125.78138,88.454235 C 125.78138,-43.572302 -33.655436,-150.68036 -219.61876,-150.68038 z"/><path style="opacity:.40206185;color:#000;fill:url(#radialGradient6719);fill-opacity:1;fill-rule:nonzero;stroke:none;stroke-width:1;stroke-linecap:round;stroke-linejoin:miter;marker:none;marker-start:none;marker-mid:none;marker-end:none;stroke-miterlimit:4;stroke-dasharray:none;stroke-dashoffset:0;stroke-opacity:1;visibility:visible;display:inline;overflow:visible" id="path6713" d="M -1559.2523,-150.68038 C -1559.2523,-150.68038 -1559.2523,327.65041 -1559.2523,327.65041 C -1702.1265,328.55086 -1904.6525,220.48075 -1904.6525,88.454235 C -1904.6525,-43.572302 -1745.2157,-150.68036 -1559.2523,-150.68038 z"/></g><rect style="opacity:1;color:#000;fill:url(#linearGradient2288);fill-opacity:1;fill-rule:nonzero;stroke:#a0670c;stroke-width:1.00000072;stroke-linecap:butt;stroke-linejoin:miter;marker:none;marker-start:none;marker-mid:none;marker-end:none;stroke-miterlimit:4;stroke-dasharray:none;stroke-dashoffset:0;stroke-opacity:1;visibility:visible;display:block;overflow:visible" id="rect3115" width="31.978" height="23.113" x="7.462" y="15.275" rx="2.424" ry="2.394"/><rect style="opacity:.48101268;color:#000;fill:none;fill-opacity:1;fill-rule:nonzero;stroke:url(#linearGradient2285);stroke-width:1.00000107;stroke-linecap:butt;stroke-linejoin:miter;marker:none;marker-start:none;marker-mid:none;marker-end:none;stroke-miterlimit:4;stroke-dasharray:none;stroke-dashoffset:0;stroke-opacity:1;visibility:visible;display:block;overflow:visible" id="rect4220" width="29.804" height="21.075" x="8.499" y="16.244" rx="1.285" ry="1.285"/><path style="fill:url(#linearGradient2280);fill-opacity:1;fill-rule:evenodd;stroke:url(#linearGradient2282);stroke-width:1.00000083;stroke-linecap:butt;stroke-linejoin:miter;stroke-miterlimit:4;stroke-dasharray:none;stroke-opacity:1" id="path4162" d="M 8.7697819,16.547178 L 13.819731,9.7363408 L 32.615291,9.6353255 L 37.835264,16.408941 L 8.7697819,16.547178 z"/><path style="opacity:1;color:#000;fill:url(#linearGradient2277);fill-opacity:1;fill-rule:nonzero;stroke:#a0670c;stroke-width:1.00000048;stroke-linecap:round;stroke-linejoin:round;marker:none;marker-start:none;marker-mid:none;marker-end:none;stroke-miterlimit:4;stroke-dasharray:none;stroke-dashoffset:0;stroke-opacity:1;visibility:visible;display:block;overflow:visible" id="path4164" d="M 38.276321,16.325703 L 43.469269,23.520364 L 3.9609455,23.520364 L 8.6250143,16.320763 L 38.276321,16.325703 z"/><path style="opacity:1;color:#000;fill:url(#linearGradient2274);fill-opacity:1;fill-rule:nonzero;stroke:#a0670c;stroke-width:1.00000048;stroke-linecap:round;stroke-linejoin:round;marker:none;marker-start:none;marker-mid:none;marker-end:none;stroke-miterlimit:4;stroke-dasharray:none;stroke-dashoffset:0;stroke-opacity:1;visibility:visible;display:block;overflow:visible" id="path4178" d="M 32.849333,9.6141009 L 37.532219,16.53637 L 46.565835,20.921197 L 38.451329,12.008545 L 32.849333,9.6141009 z"/><path style="opacity:1;color:#000;fill:#f8e8cf;fill-opacity:1;fill-rule:nonzero;stroke:#a0670c;stroke-width:1;stroke-linecap:round;stroke-linejoin:round;marker:none;marker-start:none;marker-mid:none;marker-end:none;stroke-miterlimit:4;stroke-dasharray:none;stroke-dashoffset:0;stroke-opacity:1;visibility:visible;display:block;overflow:visible" id="path4180" d="M 13.617702,9.7151161 L 9.6419233,16.435355 L 0.50729183,20.820182 L 8.6217973,11.90753 L 13.617702,9.7151161 z"/><path style="opacity:1;color:#000;fill:none;fill-opacity:1;fill-rule:nonzero;stroke:#f4e3ca;stroke-width:1;stroke-linecap:butt;stroke-linejoin:miter;marker:none;marker-start:none;marker-mid:none;marker-end:none;stroke-miterlimit:4;stroke-dasharray:none;stroke-dashoffset:0;stroke-opacity:1;visibility:visible;display:block;overflow:visible" id="path4954" d="M 37.024959,16.43605 L 41.478871,22.493011 L 5.6482792,22.493011 L 9.7892982,16.312694 L 37.024959,16.43605 z"/><path style="opacity:.87974686;fill:none;fill-opacity:1;fill-rule:evenodd;stroke:url(#linearGradient2269);stroke-width:1;stroke-linecap:round;stroke-linejoin:round;stroke-miterlimit:4;stroke-dasharray:none;stroke-opacity:1" id="path4966" d="M 9.6523127,16.371803 L 13.036643,10.59302 L 33.514841,10.517799 L 37.356782,16.36988 L 9.6523127,16.371803 z"/><g id="g2727" transform="matrix(0.6356736,0,0,0.6356736,17.454448,16.073099)"><path style="opacity:.40909089;color:#000;fill:url(#radialGradient3262);fill-opacity:1;fill-rule:nonzero;stroke:none;stroke-width:1;stroke-linecap:butt;stroke-linejoin:miter;marker:none;marker-start:none;marker-mid:none;marker-end:none;stroke-miterlimit:4;stroke-dasharray:none;stroke-dashoffset:0;stroke-opacity:1;visibility:visible;display:inline;overflow:visible" id="path3254" d="M 45.078058 39.161163 A 19.622213 6.1871843 0 1 1 5.8336315,39.161163 A 19.622213 6.1871843 0 1 1 45.078058 39.161163 z" transform="translate(-0.883885,2.474874)"/><path style="opacity:1;color:#000;fill:url(#linearGradient3281);fill-opacity:1;fill-rule:nonzero;stroke:gray;stroke-width:1;stroke-linecap:butt;stroke-linejoin:miter;marker:none;marker-start:none;marker-mid:none;marker-end:none;stroke-miterlimit:4;stroke-dasharray:none;stroke-dashoffset:0;stroke-opacity:1;visibility:visible;display:inline;overflow:visible" id="path3243" d="M 23.25,0.46875 C 22.784561,0.50059628 22.332166,0.57268469 21.875,0.625 L 21.84375,0.625 L 20.75,6.59375 C 18.967275,6.9997399 17.290091,7.6887415 15.78125,8.625 L 10.875,5.09375 C 9.5487118,6.1234406 8.3418016,7.3243453 7.28125,8.625 L 10.6875,13.59375 C 9.6532671,15.174265 8.8755317,16.978974 8.4375,18.875 C 8.437425,18.883963 8.4374391,18.904688 8.4375,18.90625 L 2.5,19.84375 C 2.3914467,20.730383 2.34375,21.646689 2.34375,22.5625 C 2.3437501,23.3118 2.3644394,24.051089 2.4375,24.78125 L 8.375,25.84375 C 8.797279,27.905642 9.5994587,29.831262 10.71875,31.53125 L 7.1875,36.375 C 8.1988261,37.630518 9.3663917,38.773616 10.625,39.78125 L 15.625,36.34375 C 17.372433,37.458467 19.323083,38.240124 21.4375,38.625 L 22.375,44.53125 C 23.041183,44.591889 23.724349,44.59375 24.40625,44.59375 C 25.368935,44.593749 26.288487,44.557267 27.21875,44.4375 L 28.34375,38.40625 C 30.351311,37.906649 32.237219,37.03996 33.875,35.875 L 38.6875,39.375 C 39.935528,38.313203 41.076777,37.092744 42.0625,35.78125 L 38.5625,30.71875 C 39.510353,29.08176 40.167129,27.275609 40.5,25.34375 L 46.40625,24.40625 C 46.458044,23.789904 46.46875,23.192163 46.46875,22.5625 C 46.46875,21.468286 46.341568,20.395416 46.1875,19.34375 L 40.1875,18.25 C 39.717306,16.513776 38.945824,14.893898 37.96875,13.4375 L 41.5,8.59375 C 40.405427,7.2551429 39.156822,6.0185688 37.78125,4.96875 L 32.6875,8.46875 C 31.223504,7.6029126 29.648037,6.9385679 27.9375,6.5625 L 27,0.625 C 26.146701,0.52462461 25.286379,0.46875 24.40625,0.46875 C 24.168378,0.46875001 23.923566,0.4612654 23.6875,0.46875 C 23.572417,0.47239881 23.458534,0.4620551 23.34375,0.46875 C 23.312662,0.4705632 23.281029,0.46662691 23.25,0.46875 z M 24.0625,15.65625 C 24.176666,15.650457 24.290652,15.65625 24.40625,15.65625 C 28.105377,15.65625 31.125,18.675874 31.125,22.375 C 31.125001,26.074126 28.105376,29.0625 24.40625,29.0625 C 20.707125,29.062501 17.71875,26.074126 17.71875,22.375 C 17.718751,18.791473 20.52335,15.835842 24.0625,15.65625 z"/><path style="opacity:.64772728;color:#000;fill:none;fill-opacity:1;fill-rule:nonzero;stroke:#fff;stroke-width:1.64875567;stroke-linecap:butt;stroke-linejoin:miter;marker:none;marker-start:none;marker-mid:none;marker-end:none;stroke-miterlimit:4;stroke-dasharray:none;stroke-dashoffset:0;stroke-opacity:1;visibility:visible;display:inline;overflow:visible" id="path3283" d="M 36.239223 23.781593 A 12.727922 12.727922 0 1 1 10.783379,23.781593 A 12.727922 12.727922 0 1 1 36.239223 23.781593 z" transform="matrix(0.606518,0,0,0.606518,10.15021,7.936835)"/><path style="opacity:.34659089;color:#000;fill:none;fill-opacity:1;fill-rule:nonzero;stroke:#fff;stroke-width:.9999997;stroke-linecap:butt;stroke-linejoin:miter;marker:none;marker-start:none;marker-mid:none;marker-end:none;stroke-miterlimit:4;stroke-dasharray:none;stroke-dashoffset:0;stroke-opacity:1;visibility:visible;display:inline;overflow:visible" id="path3285" d="M 22.557788,1.6501132 L 21.679599,7.4291233 C 20.008601,7.8096689 16.934874,8.9735344 15.520595,9.8511162 L 10.848562,6.3639293 C 9.6053938,7.3290873 9.5201391,7.3945394 8.5260544,8.6136804 L 11.904107,13.623634 C 10.934692,15.105095 9.7703031,17.745129 9.3522336,19.631722 C 9.3522336,19.631722 3.4328248,20.629563 3.4328248,20.629563 C 3.3310749,21.460629 3.3799751,23.239361 3.4484569,23.923761 L 9.1027005,24.942349 C 9.4985145,26.875018 10.979731,29.985937 12.028874,31.579383 L 8.4532981,36.303427 C 9.4012426,37.480259 9.5909623,37.587948 10.770691,38.532432 L 15.551859,35.029612 C 17.189777,36.074467 20.440892,37.345498 22.422794,37.706253 L 23.207481,43.412507 C 23.831913,43.469346 25.556962,43.628788 26.428924,43.516527 L 27.307112,37.576373 C 29.188855,37.108084 32.440272,35.773413 33.97541,34.681463 L 38.751465,38.132271 C 39.921276,37.13702 39.931757,36.987055 40.855703,35.757755 L 37.316505,30.727054 C 38.204954,29.192656 39.353733,26.191831 39.665742,24.381045 L 45.460384,23.419582 C 45.508931,22.841863 45.511294,21.230793 45.366882,20.245037 L 39.463105,19.226449 C 39.022378,17.599038 37.509894,14.666467 36.594056,13.301345 L 40.346408,8.5773019 C 39.320436,7.3225876 38.938964,7.150431 37.649602,6.1664065 L 32.707289,9.7056032 C 31.335043,8.8940304 28.598675,7.6568558 26.995341,7.3043568 L 26.122266,1.6501132 C 25.322445,1.5560285 23.014871,1.5978075 22.557788,1.6501132 z"/></g></g></svg>